name GIL06_static.mot
datacolumns 141
datarows 4
range 0.84166664 0.86666667
endheader

                time	           pelvis_tx	           pelvis_ty	           pelvis_tz	         pelvis_tilt	         pelvis_list	     pelvis_rotation	       hip_flexion_r	     hip_adduction_r	      hip_rotation_r	        knee_angle_r	       ankle_angle_r	    subtalar_angle_r	         mtp_angle_r	       hip_flexion_l	     hip_adduction_l	      hip_rotation_l	        knee_angle_l	       ankle_angle_l	    subtalar_angle_l	         mtp_angle_l	    lumbar_extension	      lumbar_bending	     lumbar_rotation	    ground_marker_px	    ground_marker_py	    ground_marker_pz	    ground_marker_px	    ground_marker_py	    ground_marker_pz	    ground_marker_px	    ground_marker_py	    ground_marker_pz	    ground_marker_px	    ground_marker_py	    ground_marker_pz	    ground_marker_px	    ground_marker_py	    ground_marker_pz	    ground_marker_px	    ground_marker_py	    ground_marker_pz	    ground_marker_px	    ground_marker_py	    ground_marker_pz	    ground_marker_px	    ground_marker_py	    ground_marker_pz	    ground_marker_px	    ground_marker_py	    ground_marker_pz	    ground_marker_px	    ground_marker_py	    ground_marker_pz	    ground_marker_px	    ground_marker_py	    ground_marker_pz	    ground_marker_px	    ground_marker_py	    ground_marker_pz	    ground_marker_px	    ground_marker_py	    ground_marker_pz	    ground_marker_px	    ground_marker_py	    ground_marker_pz	    ground_marker_px	    ground_marker_py	    ground_marker_pz	    ground_marker_px	    ground_marker_py	    ground_marker_pz	    ground_marker_px	    ground_marker_py	    ground_marker_pz	    ground_marker_px	    ground_marker_py	    ground_marker_pz	    ground_marker_px	    ground_marker_py	    ground_marker_pz	    ground_marker_px	    ground_marker_py	    ground_marker_pz	    ground_marker_px	    ground_marker_py	    ground_marker_pz	    ground_marker_px	    ground_marker_py	    ground_marker_pz	    ground_marker_px	    ground_marker_py	    ground_marker_pz	    ground_marker_px	    ground_marker_py	    ground_marker_pz	    ground_marker_px	    ground_marker_py	    ground_marker_pz	    ground_marker_px	    ground_marker_py	    ground_marker_pz	    ground_marker_px	    ground_marker_py	    ground_marker_pz	    ground_marker_px	    ground_marker_py	    ground_marker_pz	    ground_marker_px	    ground_marker_py	    ground_marker_pz	    ground_marker_px	    ground_marker_py	    ground_marker_pz	    ground_marker_px	    ground_marker_py	    ground_marker_pz	    ground_marker_px	    ground_marker_py	    ground_marker_pz	    ground_marker_px	    ground_marker_py	    ground_marker_pz	    ground_marker_px	    ground_marker_py	    ground_marker_pz	    ground_marker_px	    ground_marker_py	    ground_marker_pz	    ground_marker_px	    ground_marker_py	    ground_marker_pz	    ground_marker_px	    ground_marker_py	    ground_marker_pz	    ground_marker_px	    ground_marker_py	    ground_marker_pz	    ground_marker_px	    ground_marker_py	    ground_marker_pz	
          0.84166664	          0.86074591	          0.85204923	         -0.24358156	         -8.79785919	          0.11269460	          0.16229646	          8.26367378	         -1.85705423	          4.98936558	         -0.80812198	         -1.83982766	          0.00000000	          0.00000000	         10.10342216	         -1.74392307	         -5.39746761	         -2.02021265	         -0.37306032	          0.00000000	          0.00000000	          7.62299061	          0.18655148	          1.01081765	          0.74658608	          0.78475296	         -0.24495444	          0.72572285	          0.79030585	         -0.16567892	          0.72541946	          0.79074854	         -0.32130712	          0.72228634	          0.41916668	         -0.15469494	          0.73362648	          0.42973125	         -0.33334571	          0.71623695	          0.05892496	         -0.11712022	          0.72665149	          0.05679964	         -0.36868706	          0.86074591	          0.85204923	         -0.24358156	          0.86098659	          0.85169810	         -0.12012786	          0.86050516	          0.85240042	         -0.36703527	          0.62328327	          0.94405192	         -0.20864500	          0.61920685	          0.94195014	         -0.26346552	          0.72884315	          0.42127168	         -0.08151826	          0.72652119	          0.43200803	         -0.40646604	          0.70545077	          0.42552480	         -0.22230922	          0.72976768	          0.40892631	         -0.25932047	          0.70589370	          0.06315894	         -0.07819285	          0.70252258	          0.06043210	         -0.40225565	          0.72198260	          0.06690061	         -0.15312134	          0.72262877	          0.07260580	         -0.32582358	          0.65383452	          0.04993831	         -0.12470741	          0.67234635	          0.04734533	         -0.33442619	          0.78341782	          1.28803480	         -0.26507616	          0.84112203	          1.21884811	         -0.26543432	          0.66522086	          1.35138249	         -0.24709564	          0.80077654	          1.29447794	         -0.21240899	          0.79918242	          1.29499447	         -0.29395083	          0.82442361	          0.04367506	         -0.10465524	          0.82205081	          0.04818822	         -0.38322890	          0.89017081	          0.57319164	         -0.09114310	          0.90959996	          0.60470009	         -0.34796163	          0.85142529	          0.59545815	         -0.11153728	          0.86238199	          0.62076896	         -0.35137752	          0.82157272	          0.52303332	         -0.11443859	          0.84418720	          0.54968125	         -0.35233924	          0.80038875	          0.20844108	         -0.10375853	          0.68614590	          0.17511487	         -0.46074077	          0.75478870	          0.21449618	         -0.11693902	          0.69229138	          0.18468808	         -0.41233653	
          0.85000002	          0.86083132	          0.85202324	         -0.24359520	         -8.81220055	          0.11294637	          0.16392401	          8.27694511	         -1.84654117	          4.95696259	         -0.81329226	         -1.81966412	          0.00000000	          0.00000000	         10.10491562	         -1.74372852	         -5.38889933	         -2.00852489	         -0.36497518	          0.00000000	          0.00000000	          7.68933821	         -0.05851110	          1.40130293	          0.74665606	          0.78475326	         -0.24496616	          0.72579479	          0.79031259	         -0.16569006	          0.72548759	          0.79075754	         -0.32131824	          0.72235239	          0.41926962	         -0.15478241	          0.73361313	          0.42974681	         -0.33336064	          0.71626037	          0.05895254	         -0.11713245	          0.72663224	          0.05681447	         -0.36872408	          0.86083132	          0.85202324	         -0.24359520	          0.86107504	          0.85167021	         -0.12011394	          0.86058760	          0.85237634	         -0.36707646	          0.62340033	          0.94408721	         -0.20863062	          0.61934179	          0.94196904	         -0.26346239	          0.72886950	          0.42136046	         -0.08160178	          0.72651756	          0.43202624	         -0.40648183	          0.70516503	          0.42577258	         -0.22227822	          0.73020697	          0.40871173	         -0.25926501	          0.70589656	          0.06319466	         -0.07821144	          0.70250744	          0.06044947	         -0.40229535	          0.72200620	          0.06691532	         -0.15312986	          0.72273886	          0.07262004	         -0.32589886	          0.65384471	          0.04990881	         -0.12470274	          0.67235744	          0.04733688	         -0.33443883	          0.78366858	          1.28810966	         -0.26486039	          0.84143519	          1.21897566	         -0.26532784	          0.66533494	          1.35150039	         -0.24706212	          0.80138695	          1.29478848	         -0.21221156	          0.79922378	          1.29496360	         -0.29400164	          0.82441717	          0.04368876	         -0.10467389	          0.82205617	          0.04819666	         -0.38318712	          0.89025760	          0.57321543	         -0.09125319	          0.90962571	          0.60461211	         -0.34803754	          0.85150325	          0.59541953	         -0.11151031	          0.86234391	          0.62074620	         -0.35141549	          0.82157129	          0.52298927	         -0.11447477	          0.84430677	          0.54973960	         -0.35236654	          0.80045325	          0.20845626	         -0.10372948	          0.68610162	          0.17513788	         -0.46075147	          0.75478870	          0.21449618	         -0.11693902	          0.69232309	          0.18459409	         -0.41244861	
          0.85833335	          0.86090171	          0.85200989	         -0.24361521	         -8.82242584	          0.11473409	          0.16338702	          8.28770256	         -1.83821642	          4.91818857	         -0.81712693	         -1.79595745	          0.00000000	          0.00000000	         10.09527588	         -1.73843157	         -5.37189531	         -1.98263097	         -0.36014411	          0.00000000	          0.00000000	          7.86314344	         -0.46740478	          2.16398120	          0.74671757	          0.78475511	         -0.24499023	          0.72585267	          0.79032123	         -0.16571435	          0.72554862	          0.79077029	         -0.32134253	          0.72241431	          0.41938376	         -0.15487356	          0.73355049	          0.42970580	         -0.33336231	          0.71629220	          0.05899183	         -0.11715247	          0.72661495	          0.05682829	         -0.36873859	          0.86090171	          0.85200989	         -0.24361521	          0.86114299	          0.85165352	         -0.12011229	          0.86066043	          0.85236621	         -0.36711815	          0.62351519	          0.94411647	         -0.20861334	          0.61945844	          0.94197565	         -0.26344576	          0.72888029	          0.42146271	         -0.08168805	          0.72647887	          0.43198335	         -0.40648586	          0.70488590	          0.42578191	         -0.22203282	          0.73012179	          0.40897420	         -0.25906619	          0.70590150	          0.06324124	         -0.07823941	          0.70250046	          0.06046257	         -0.40231740	          0.72203517	          0.06693905	         -0.15314531	          0.72277570	          0.07260653	         -0.32593006	          0.65385914	          0.04986307	         -0.12470514	          0.67237228	          0.04733084	         -0.33444399	          0.78422737	          1.28829730	         -0.26435351	          0.84218228	          1.21932375	         -0.26511356	          0.66523147	          1.35174453	         -0.24713942	          0.80263489	          1.29539371	         -0.21181108	          0.79936492	          1.29499030	         -0.29392987	          0.82441026	          0.04370338	         -0.10469379	          0.82206839	          0.04821861	         -0.38313901	          0.89034253	          0.57323849	         -0.09133906	          0.90967900	          0.60455954	         -0.34807122	          0.85142547	          0.59541690	         -0.11154383	          0.86247605	          0.62080300	         -0.35148337	          0.82151932	          0.52300811	         -0.11446359	          0.84435904	          0.54973048	         -0.35233769	          0.80049074	          0.20847028	         -0.10368864	          0.68605667	          0.17517056	         -0.46074682	          0.75474334	          0.21451142	         -0.11694583	          0.69230759	          0.18454348	         -0.41246545	
          0.86666667	          0.86096609	          0.85200870	         -0.24363311	         -8.82778358	          0.11504544	          0.16582394	          8.29167747	         -1.83061290	          4.87688398	         -0.81608367	         -1.77426338	          0.00000000	          0.00000000	         10.08246613	         -1.73360777	         -5.35617495	         -1.95698655	         -0.35526466	          0.00000000	          0.00000000	          7.97412825	         -0.65823263	          2.43217540	          0.74677944	          0.78475797	         -0.24500518	          0.72591418	          0.79033107	         -0.16572838	          0.72560430	          0.79078335	         -0.32135653	          0.72246808	          0.41948840	         -0.15494703	          0.73349261	          0.42965710	         -0.33335528	          0.71633339	          0.05904199	         -0.11717911	          0.72661006	          0.05683727	         -0.36873767	          0.86096609	          0.85200870	         -0.24363311	          0.86121202	          0.85164976	         -0.12011436	          0.86072016	          0.85236764	         -0.36715186	          0.62361389	          0.94414330	         -0.20859569	          0.61954212	          0.94197702	         -0.26341996	          0.72888404	          0.42155662	         -0.08175681	          0.72643912	          0.43193269	         -0.40648064	          0.70470685	          0.42570898	         -0.22190921	          0.72995287	          0.40916741	         -0.25916645	          0.70591629	          0.06329584	         -0.07827359	          0.70250338	          0.06046964	         -0.40232226	          0.72204804	          0.06697685	         -0.15317060	          0.72282720	          0.07261088	         -0.32594758	          0.65387380	          0.04981602	         -0.12471484	          0.67238331	          0.04732835	         -0.33444428	          0.78470355	          1.28837717	         -0.26404977	          0.84277993	          1.21950650	         -0.26485977	          0.66514176	          1.35186720	         -0.24716160	          0.80334902	          1.29567909	         -0.21157052	          0.79968637	          1.29500043	         -0.29376745	          0.82440782	          0.04371791	         -0.10471553	          0.82208508	          0.04824669	         -0.38309091	          0.89041626	          0.57326049	         -0.09140894	          0.90972084	          0.60453665	         -0.34809127	          0.85133892	          0.59535474	         -0.11160684	          0.86259937	          0.62092710	         -0.35154572	          0.82146597	          0.52298284	         -0.11448860	          0.84437567	          0.54970241	         -0.35239193	          0.80049318	          0.20847739	         -0.10365716	          0.68602467	          0.17520699	         -0.46073481	          0.75465280	          0.21454194	         -0.11695945	          0.69230759	          0.18454348	         -0.41246545	
